<?xml version="1.0" standalone="no"?>
<!DOCTYPE svg PUBLIC "-//W3C//DTD SVG 20010904//EN"
 "http://www.w3.org/TR/2001/REC-SVG-20010904/DTD/svg10.dtd">
<svg version="1.0" xmlns="http://www.w3.org/2000/svg"
 width="896.000000pt" height="896.000000pt" viewBox="0 0 896.000000 896.000000"
 preserveAspectRatio="xMidYMid meet">
<metadata>
Created by potrace 1.14, written by Peter Selinger 2001-2017
</metadata>
<g transform="translate(0.000000,896.000000) scale(0.100000,-0.100000)"
fill="#000000" stroke="none">
<path d="M1026 8952 c-4 -3 -19 -8 -34 -10 -38 -5 -151 -67 -192 -105 -69 -64
-126 -159 -149 -247 -7 -30 -8 -8198 0 -8220 3 -8 11 -33 19 -55 29 -89 114
-192 198 -242 79 -47 142 -65 237 -69 76 -3 102 1 165 22 105 36 190 102 257
199 26 38 64 146 68 195 2 19 4 37 5 40 2 3 2 9 1 14 -1 5 -1 63 -1 130 1 66
1 127 1 134 0 6 0 33 0 60 0 26 -1 61 -1 77 -1 17 -2 37 -1 45 0 8 0 40 0 70
0 30 0 62 0 70 0 8 0 49 0 90 0 41 0 95 0 120 0 49 0 163 0 195 0 11 0 86 1
168 1 81 -2 151 -5 156 -3 5 -2 12 3 15 4 3 5 30 2 61 -3 31 -2 58 2 61 5 3 6
9 4 13 -4 6 -7 71 -5 124 0 14 0 238 0 295 0 9 0 46 0 82 0 36 0 72 0 80 0 8
0 44 0 80 0 36 0 81 -1 100 -1 19 -2 42 -2 50 4 93 2 312 -3 319 -3 5 -2 12 3
15 4 3 5 30 2 61 -3 31 -2 58 2 61 5 3 6 9 4 13 -4 6 -7 71 -5 124 1 43 0 286
-1 317 -1 19 -2 40 -2 45 1 6 1 69 1 140 0 138 0 140 0 210 0 25 0 53 0 63 0
9 0 42 0 72 0 30 0 66 1 80 1 14 2 32 2 40 -1 8 -1 69 -1 135 0 66 0 126 0
133 0 6 0 32 0 57 0 25 0 52 0 60 0 8 0 35 0 60 0 25 0 51 0 58 0 6 0 35 0 62
0 28 0 57 0 65 0 8 0 60 0 115 0 55 0 107 1 115 0 8 0 51 -1 95 0 44 0 87 0
95 0 8 0 38 0 65 0 28 0 59 0 70 0 11 0 43 0 70 0 59 0 50 -1 150 0 44 -1 109
-1 145 0 36 0 74 0 85 0 11 0 86 1 168 1 81 -2 151 -5 156 -3 5 -2 12 3 15 4
3 5 30 2 61 -3 31 -2 58 2 61 5 3 6 9 4 13 -4 6 -7 71 -5 124 1 43 0 286 -1
317 -1 19 -2 42 -2 50 1 8 1 83 1 165 0 83 0 157 0 165 0 8 0 35 0 60 0 25 0
51 0 58 0 16 0 98 0 115 0 6 0 32 0 57 0 25 0 52 0 60 -1 8 -1 62 0 120 0 58
0 113 0 123 0 24 0 104 0 125 0 9 0 42 0 72 0 30 0 66 1 80 1 14 2 31 2 38 -1
6 -1 65 -1 130 0 64 0 131 -1 147 -4 120 -10 166 -24 198 -8 21 -14 38 -13 40
1 1 -12 27 -30 57 -64 113 -172 193 -303 228 -28 7 -198 11 -204 4z"/>
<path d="M4665 8822 c-3 -3 -15 -7 -26 -9 -63 -10 -139 -82 -1158 -1102 -793
-793 -1060 -1066 -1073 -1096 -28 -69 -31 -79 -33 -125 -7 -123 52 -231 162
-296 55 -33 75 -38 163 -37 116 1 150 21 320 190 79 78 148 143 152 143 5 0 8
4 8 8 0 11 151 162 161 162 4 0 10 8 13 18 3 9 19 26 36 37 16 11 30 23 30 26
0 8 111 119 119 119 3 1 20 18 36 39 17 21 42 47 57 57 16 11 28 24 28 29 1 6
19 24 40 40 21 17 39 33 40 36 0 8 218 223 230 227 5 2 10 7 10 12 0 10 142
150 152 150 4 0 8 4 8 8 0 4 191 199 425 432 480 480 477 477 478 610 0 41 -2
85 -5 96 -27 97 -126 194 -223 219 -37 10 -142 14 -150 7z"/>
<path d="M7417 8764 c-2 -3 -29 -6 -58 -8 -30 -2 -54 -4 -54 -6 0 -1 -11 -3
-25 -6 -60 -10 -153 -69 -244 -152 -52 -48 -95 -91 -97 -97 -1 -5 -325 -329
-719 -720 -394 -390 -718 -713 -718 -716 -3 -10 -73 -79 -80 -80 -4 0 -29 -27
-57 -59 -27 -32 -54 -59 -60 -60 -5 0 -23 -18 -40 -38 -16 -20 -50 -55 -76
-77 -26 -22 -48 -44 -49 -50 -1 -5 -28 -32 -60 -60 -32 -27 -59 -53 -59 -56
-2 -11 -104 -109 -113 -109 -4 0 -8 -3 -8 -8 0 -10 -1112 -1122 -1122 -1122
-5 0 -8 -4 -8 -8 0 -9 -98 -111 -109 -113 -3 0 -28 -27 -56 -59 -27 -32 -52
-59 -55 -59 -6 -1 -380 -372 -380 -376 0 -2 -11 -21 -25 -41 -28 -42 -57 -131
-60 -185 -1 -19 -5 -41 -9 -47 -4 -7 -5 -15 -3 -19 3 -5 8 -31 11 -58 6 -61
28 -125 62 -182 24 -42 3904 -3930 3975 -3984 79 -60 209 -99 309 -92 52 4 89
9 100 14 3 1 10 3 16 3 26 3 143 70 179 104 176 161 210 431 80 621 -19 27
-828 843 -1798 1813 -1624 1624 -1763 1766 -1751 1783 8 10 14 15 14 9 0 -5 4
-2 10 6 5 8 796 802 1758 1765 1332 1332 1757 1763 1781 1805 17 30 38 79 46
108 18 60 26 190 13 198 -4 3 -6 9 -3 14 15 25 -83 230 -121 253 -7 4 -25 20
-41 35 -15 15 -50 39 -78 54 -52 27 -155 61 -163 54 -2 -3 -14 -1 -27 4 -13 5
-25 7 -28 4z"/>
<path d="M7925 6390 c-125 -28 -228 -142 -240 -266 -3 -25 -7 -50 -11 -55 -3
-5 -1 -9 5 -9 6 0 6 -11 1 -30 -5 -17 -5 -30 0 -30 5 0 5 -13 0 -30 -5 -17 -5
-30 0 -30 5 0 5 -13 0 -30 -5 -17 -5 -30 0 -30 5 0 5 -13 0 -30 -5 -17 -5 -30
0 -30 5 0 5 -13 0 -30 -5 -17 -5 -30 0 -30 5 0 5 -13 0 -30 -5 -17 -5 -30 0
-30 5 0 5 -13 0 -30 -5 -17 -5 -30 0 -30 5 0 5 -13 0 -30 -5 -17 -5 -30 0 -30
5 0 5 -13 0 -30 -5 -17 -5 -30 0 -30 5 0 5 -13 0 -30 -5 -17 -5 -30 0 -30 5 0
5 -13 0 -30 -5 -17 -5 -30 0 -30 5 0 5 -13 0 -30 -5 -17 -5 -30 0 -30 5 0 5
-13 0 -30 -5 -17 -5 -30 0 -30 5 0 5 -13 0 -30 -5 -17 -5 -30 0 -30 5 0 5 -13
0 -30 -5 -17 -5 -30 0 -30 5 0 5 -13 0 -30 -5 -17 -5 -30 0 -30 5 0 5 -13 0
-30 -5 -17 -5 -30 0 -30 5 0 5 -13 0 -30 -5 -17 -5 -30 0 -30 5 0 5 -13 0 -30
-5 -17 -5 -30 0 -30 5 0 5 -13 0 -30 -5 -17 -5 -30 0 -30 5 0 5 -13 0 -30 -5
-17 -5 -30 0 -30 5 0 5 -13 0 -30 -5 -17 -5 -30 0 -30 5 0 5 -13 0 -30 -5 -17
-5 -30 0 -30 5 0 5 -13 0 -30 -5 -17 -5 -30 0 -30 5 0 5 -13 0 -30 -5 -17 -5
-30 0 -30 5 0 5 -13 0 -30 -5 -17 -5 -30 0 -30 5 0 5 -13 0 -30 -5 -17 -5 -30
0 -30 5 0 5 -13 0 -30 -5 -17 -5 -30 0 -30 5 0 5 -13 0 -30 -5 -17 -5 -30 0
-30 5 0 5 -13 0 -30 -5 -17 -5 -30 0 -30 5 0 5 -13 0 -30 -5 -17 -5 -30 0 -30
5 0 5 -13 0 -30 -5 -17 -5 -30 0 -30 5 0 5 -13 0 -30 -5 -17 -5 -30 0 -30 5 0
5 -13 0 -30 -5 -17 -5 -30 0 -30 5 0 5 -13 0 -30 -5 -17 -5 -30 0 -30 5 0 5
-13 0 -30 -5 -19 -5 -30 1 -30 6 0 8 -4 4 -9 -7 -13 -10 -239 -3 -247 4 -3 2
-19 -2 -35 -5 -18 -5 -29 1 -29 6 0 7 -5 4 -11 -8 -13 -10 -237 -2 -245 3 -3
1 -19 -3 -35 -5 -18 -5 -29 1 -29 6 0 7 -5 4 -11 -8 -13 -10 -237 -2 -245 3
-3 1 -19 -3 -35 -5 -16 -5 -29 0 -29 5 0 5 -13 0 -30 -5 -17 -6 -30 -2 -30 4
0 8 -19 9 -43 3 -107 99 -222 217 -261 16 -5 94 -18 121 -19 37 -2 145 48 186
86 45 41 103 133 93 148 -2 4 0 10 6 14 15 9 14 3311 -1 3356 -32 99 -90 169
-174 208 -52 24 -152 35 -210 21z"/>
<path d="M6080 4798 c0 -3 -9 -4 -19 -1 -11 3 -48 -5 -83 -16 -77 -26 -144
-84 -184 -161 -26 -49 -29 -65 -28 -140 1 -96 20 -148 76 -211 35 -38 90 -80
111 -83 7 -1 18 -5 24 -9 7 -5 43 -10 80 -13 37 -3 69 -7 71 -9 2 -2 14 0 27
5 13 5 26 6 29 2 8 -8 103 -5 116 3 6 3 10 3 10 -2 0 -4 33 -7 72 -5 40 2 82
2 93 2 11 -1 27 -1 35 -1 8 1 29 1 45 0 17 0 37 0 45 1 8 0 24 0 35 0 109 -5
255 25 255 51 0 5 6 9 13 9 31 0 114 119 126 180 8 42 6 154 -3 175 -5 11 -10
25 -12 32 -9 44 -96 132 -161 163 -38 18 -165 39 -188 31 -5 -2 -17 -3 -25 -2
-8 0 -31 1 -50 0 -19 0 -41 0 -47 0 -44 1 -224 2 -230 0 -5 -1 -12 0 -18 1
-13 3 -107 3 -120 0 -5 -1 -12 -2 -15 0 -14 5 -80 4 -80 -2z"/>
<path d="M2625 2740 c-91 -21 -178 -88 -216 -168 -30 -62 -30 -65 -32 -147 -2
-141 -72 -63 1105 -1240 579 -579 1069 -1060 1088 -1071 60 -31 93 -40 155
-39 61 0 155 23 155 37 0 4 6 8 13 8 17 0 64 44 99 91 72 98 72 259 0 359 -14
19 -494 504 -1067 1077 -920 920 -1048 1046 -1098 1069 -59 26 -145 37 -202
24z"/>
</g>
</svg>
